<svg width="22" height="23" viewBox="0 0 22 23" fill="none" xmlns="http://www.w3.org/2000/svg">
<path d="M10.5 0.5C11 0.75 12 2.4 12 3.5C12 4.6 11.33 5 10.5 5C9.67 5 9 4.85 9 3.75C9 2.65 10 2 10.5 0.5ZM17.5 9C20 9 22 11 22 13.5C22 15.06 21.21 16.43 20 17.24V23H11H2V17.24C0.79 16.43 0 15.06 0 13.5C0 11 2 9 4.5 9H9V6H12V9H17.5ZM11 16C11.663 16 12.2989 15.7366 12.7678 15.2678C13.2366 14.7989 13.5 14.163 13.5 13.5H15C15 14.163 15.2634 14.7989 15.7322 15.2678C16.2011 15.7366 16.837 16 17.5 16C18.163 16 18.7989 15.7366 19.2678 15.2678C19.7366 14.7989 20 14.163 20 13.5C20 12.837 19.7366 12.2011 19.2678 11.7322C18.7989 11.2634 18.163 11 17.5 11H4.5C3.83696 11 3.20107 11.2634 2.73223 11.7322C2.26339 12.2011 2 12.837 2 13.5C2 14.163 2.26339 14.7989 2.73223 15.2678C3.20107 15.7366 3.83696 16 4.5 16C5.16304 16 5.79893 15.7366 6.26777 15.2678C6.73661 14.7989 7 14.163 7 13.5H8.5C8.5 14.163 8.76339 14.7989 9.23223 15.2678C9.70107 15.7366 10.337 16 11 16Z" fill="black"/>
</svg>
