<svg width="18" height="20" viewBox="0 0 18 20" fill="none" xmlns="http://www.w3.org/2000/svg">
<path d="M9 7C10.59 14.61 7 20 7 20H10C11.88 14.2 11 10.09 10.5 8L9 7ZM12.66 5.16C12.83 5.37 13 5.59 13.13 5.82C14.84 8.53 14.5 11.95 12.5 14.26C13.34 12.21 13.22 9.79 11.95 7.77C11.87 7.64 11.78 7.53 11.7 7.41C11.11 6.58 10.36 5.92 9.54 5.43C6.66 6.35 4.58 9.04 4.58 12.22C4.58 12.96 4.69 13.67 4.89 14.33C4.05 13.16 3.56 11.73 3.56 10.19C3.56 7.84 4.7 5.76 6.45 4.46C5 4.35 3.46 4.67 2.12 5.5C1.5 5.91 0.96 6.38 0.5 6.91C1.05 5.58 2 4.39 3.3 3.57C4.8 2.63 6.5 2.32 8.14 2.56C7.73 2 7.23 1.47 6.63 1C6.05 0.58 5.42 0.24 4.76 0C6.2 0.04 7.64 0.5 8.87 1.43C9.5 1.9 10 2.47 10.4 3.07C10.5 3.07 10.59 3.06 10.69 3.06C13.89 3.06 16.6 5.17 17.5 8.08C16.38 6.5 14.65 5.43 12.66 5.16Z" fill="black"/>
</svg>
