<svg width="56" height="56" viewBox="0 0 56 56" fill="none" xmlns="http://www.w3.org/2000/svg">
<path d="M28 0.666748C31.6246 0.666748 35.1008 2.10662 37.6638 4.66962C40.2268 7.23262 41.6667 10.7088 41.6667 14.3334C41.6667 17.958 40.2268 21.4342 37.6638 23.9972C35.1008 26.5602 31.6246 28.0001 28 28.0001C24.3754 28.0001 20.8992 26.5602 18.3362 23.9972C15.7732 21.4342 14.3334 17.958 14.3334 14.3334C14.3334 10.7088 15.7732 7.23262 18.3362 4.66962C20.8992 2.10662 24.3754 0.666748 28 0.666748ZM28 34.8334C43.1017 34.8334 55.3334 40.9492 55.3334 48.5001V55.3334H0.666687V48.5001C0.666687 40.9492 12.8984 34.8334 28 34.8334Z" fill="#FAFAFA"/>
</svg>
